# xmcd CD database file
#
# Track frame offsets:
#	150
#	25067
#	45794
#	68715
#	89514
#	109635
#	131110
#	153541
#	172608
#	196624
#	214371
#
# Disc length: 2929 seconds
#
# Revision: 2
# Processed by: cddbd v1.4b41PL1 Copyright (c) Steve Scherf et al.
# Submitted via: Feurio! 1.52 - http://www.feurio.com
#
DISCID=860b6f0b
DTITLE=Johnny Gill - Johnny Gill
DYEAR=1900
DGENRE=
TTITLE0=Rub You The Right Way
TTITLE1=Fairweather Friend
TTITLE2=Wrap My Body Tight
TTITLE3=Feels So Much Better
TTITLE4=Never Know Love
TTITLE5=My, My, My
TTITLE6=Lady Dajour
TTITLE7=Just Another Lonely Night
TTITLE8=Giving My All To You
TTITLE9=Let's Spend The Night
TTITLE10=My, My, My
EXTD=
EXTT0=
EXTT1=
EXTT2=
EXTT3=
EXTT4=
EXTT5=
EXTT6=
EXTT7=
EXTT8=
EXTT9=
EXTT10=
PLAYORDER=
